<?xml version="1.0" encoding="utf-8"?>
<!-- Generator: Adobe Illustrator 16.0.0, SVG Export Plug-In . SVG Version: 6.00 Build 0)  -->
<!DOCTYPE svg PUBLIC "-//W3C//DTD SVG 1.1//EN" "http://www.w3.org/Graphics/SVG/1.1/DTD/svg11.dtd">
<svg version="1.1" id="Layer_1" xmlns="http://www.w3.org/2000/svg" xmlns:xlink="http://www.w3.org/1999/xlink" x="0px" y="0px"
	 width="135px" height="40px" viewBox="0 0 135 40" enable-background="new 0 0 135 40" xml:space="preserve">
<g>
	<defs>
		<rect id="SVGID_1_" width="135" height="40"/>
	</defs>
	<clipPath id="SVGID_2_">
		<use xlink:href="#SVGID_1_"  overflow="visible"/>
	</clipPath>
	<path clip-path="url(#SVGID_2_)" fill="#FFFFFF" d="M134.032,35.268c0,2.116-1.714,3.83-3.834,3.83H4.729
		c-2.119,0-3.839-1.714-3.839-3.83V4.726c0-2.116,1.72-3.836,3.839-3.836h125.468c2.121,0,3.834,1.72,3.834,3.836L134.032,35.268z"
		/>
	<path clip-path="url(#SVGID_2_)" d="M130.198,39.989H4.729C2.122,39.989,0,37.872,0,35.268V4.726C0,2.12,2.122,0,4.729,0h125.468
		c2.604,0,4.729,2.12,4.729,4.726v30.542C134.927,37.872,132.802,39.989,130.198,39.989"/>
	<path clip-path="url(#SVGID_2_)" d="M134.032,35.268c0,2.116-1.714,3.83-3.834,3.83H4.729c-2.119,0-3.839-1.714-3.839-3.83V4.726
		c0-2.116,1.72-3.836,3.839-3.836h125.468c2.121,0,3.834,1.72,3.834,3.836L134.032,35.268z"/>
	<path clip-path="url(#SVGID_2_)" fill="#FFFFFF" d="M30.128,19.784c-0.029-3.223,2.639-4.791,2.761-4.864
		c-1.511-2.203-3.853-2.504-4.676-2.528c-1.967-0.207-3.875,1.177-4.877,1.177c-1.022,0-2.565-1.157-4.228-1.123
		c-2.14,0.033-4.142,1.272-5.24,3.196c-2.266,3.923-0.576,9.688,1.595,12.859c1.086,1.554,2.355,3.287,4.016,3.226
		c1.625-0.065,2.232-1.035,4.193-1.035c1.943,0,2.513,1.035,4.207,0.996c1.744-0.026,2.842-1.56,3.89-3.127
		c1.255-1.778,1.759-3.533,1.779-3.623C33.508,24.924,30.162,23.646,30.128,19.784"/>
	<path clip-path="url(#SVGID_2_)" fill="#FFFFFF" d="M26.928,10.306c0.874-1.093,1.472-2.58,1.306-4.089
		c-1.265,0.056-2.847,0.875-3.758,1.944c-0.806,0.942-1.526,2.486-1.34,3.938C24.557,12.205,26.016,11.382,26.928,10.306"/>
	<path clip-path="url(#SVGID_2_)" fill="#FFFFFF" d="M53.665,31.504h-2.271l-1.244-3.909h-4.324l-1.185,3.909H42.43l4.285-13.308
		h2.646L53.665,31.504z M49.775,25.955L48.65,22.48c-0.119-0.355-0.343-1.191-0.671-2.507h-0.04
		c-0.132,0.566-0.343,1.402-0.632,2.507l-1.106,3.475H49.775z"/>
	<path clip-path="url(#SVGID_2_)" fill="#FFFFFF" d="M64.663,26.588c0,1.632-0.443,2.922-1.33,3.869
		c-0.794,0.843-1.781,1.264-2.958,1.264c-1.271,0-2.185-0.453-2.74-1.361v5.035h-2.132V25.063c0-1.026-0.027-2.077-0.079-3.155
		h1.875l0.119,1.521h0.04c0.711-1.146,1.79-1.72,3.238-1.72c1.132,0,2.077,0.447,2.833,1.342
		C64.284,23.949,64.663,25.127,64.663,26.588 M62.491,26.666c0-0.934-0.21-1.704-0.632-2.31c-0.461-0.632-1.08-0.948-1.856-0.948
		c-0.526,0-1.004,0.176-1.431,0.523c-0.428,0.35-0.708,0.807-0.839,1.373c-0.066,0.264-0.099,0.479-0.099,0.648v1.602
		c0,0.696,0.214,1.285,0.642,1.768c0.428,0.479,0.984,0.721,1.668,0.721c0.803,0,1.428-0.311,1.875-0.928
		C62.267,28.496,62.491,27.68,62.491,26.666"/>
	<path clip-path="url(#SVGID_2_)" fill="#FFFFFF" d="M75.7,26.588c0,1.632-0.444,2.922-1.33,3.869
		c-0.795,0.843-1.781,1.264-2.959,1.264c-1.271,0-2.185-0.453-2.74-1.361v5.035h-2.132V25.063c0-1.026-0.027-2.077-0.079-3.155
		h1.875l0.119,1.521h0.04c0.71-1.146,1.789-1.72,3.238-1.72c1.131,0,2.076,0.447,2.834,1.342C75.32,23.949,75.7,25.127,75.7,26.588
		 M73.527,26.666c0-0.934-0.211-1.704-0.633-2.31c-0.461-0.632-1.078-0.948-1.854-0.948c-0.526,0-1.004,0.176-1.433,0.523
		c-0.428,0.35-0.707,0.807-0.838,1.373c-0.065,0.264-0.101,0.479-0.101,0.648v1.602c0,0.696,0.214,1.285,0.642,1.768
		c0.428,0.479,0.983,0.721,1.67,0.721c0.804,0,1.429-0.311,1.875-0.928C73.303,28.496,73.527,27.68,73.527,26.666"/>
	<path clip-path="url(#SVGID_2_)" fill="#FFFFFF" d="M88.04,27.771c0,1.133-0.396,2.054-1.183,2.765
		c-0.866,0.776-2.075,1.165-3.625,1.165c-1.433,0-2.58-0.276-3.446-0.829l0.493-1.777c0.935,0.554,1.962,0.83,3.08,0.83
		c0.804,0,1.429-0.182,1.875-0.543c0.447-0.362,0.673-0.846,0.673-1.45c0-0.541-0.187-0.994-0.555-1.363
		c-0.368-0.367-0.979-0.711-1.835-1.025c-2.331-0.869-3.496-2.141-3.496-3.813c0-1.092,0.412-1.985,1.233-2.685
		c0.822-0.697,1.912-1.047,3.269-1.047c1.211,0,2.22,0.211,3.021,0.632l-0.535,1.739c-0.754-0.409-1.604-0.613-2.557-0.613
		c-0.752,0-1.343,0.185-1.766,0.554c-0.354,0.328-0.534,0.729-0.534,1.205c0,0.524,0.205,0.961,0.613,1.303
		c0.354,0.315,1,0.658,1.935,1.026c1.146,0.462,1.986,1,2.526,1.618C87.769,26.081,88.04,26.852,88.04,27.771"/>
	<path clip-path="url(#SVGID_2_)" fill="#FFFFFF" d="M95.107,23.508h-2.351v4.659c0,1.185,0.415,1.776,1.244,1.776
		c0.381,0,0.697-0.032,0.947-0.1l0.059,1.619c-0.42,0.157-0.973,0.236-1.657,0.236c-0.843,0-1.5-0.258-1.976-0.771
		c-0.474-0.514-0.711-1.375-0.711-2.587v-4.837h-1.399v-1.601h1.399v-1.757l2.094-0.632v2.389h2.351V23.508z"/>
	<path clip-path="url(#SVGID_2_)" fill="#FFFFFF" d="M105.689,26.627c0,1.475-0.422,2.686-1.265,3.633
		c-0.881,0.975-2.053,1.461-3.514,1.461c-1.409,0-2.531-0.467-3.367-1.4c-0.835-0.935-1.254-2.112-1.254-3.533
		c0-1.487,0.433-2.705,1.294-3.652s2.023-1.422,3.484-1.422c1.408,0,2.539,0.469,3.396,1.402
		C105.282,24.021,105.689,25.191,105.689,26.627 M103.479,26.676c0-0.879-0.189-1.633-0.57-2.264
		c-0.447-0.762-1.088-1.143-1.916-1.143c-0.854,0-1.51,0.381-1.955,1.143c-0.383,0.631-0.572,1.398-0.572,2.304
		c0,0.88,0.189,1.636,0.572,2.265c0.461,0.763,1.104,1.144,1.938,1.144c0.814,0,1.453-0.39,1.916-1.162
		C103.282,28.316,103.479,27.557,103.479,26.676"/>
	<path clip-path="url(#SVGID_2_)" fill="#FFFFFF" d="M112.622,23.783c-0.211-0.039-0.437-0.059-0.672-0.059
		c-0.75,0-1.33,0.281-1.738,0.85c-0.354,0.5-0.532,1.132-0.532,1.895v5.035h-2.132V24.93c0-1.104-0.021-2.113-0.062-3.021h1.856
		l0.078,1.836h0.06c0.226-0.631,0.58-1.14,1.065-1.521c0.476-0.344,0.988-0.515,1.541-0.515c0.197,0,0.375,0.015,0.533,0.039
		L112.622,23.783z"/>
	<path clip-path="url(#SVGID_2_)" fill="#FFFFFF" d="M122.157,26.252c0,0.382-0.025,0.704-0.078,0.967h-6.396
		c0.023,0.948,0.334,1.674,0.928,2.174c0.539,0.446,1.236,0.67,2.092,0.67c0.947,0,1.811-0.149,2.588-0.453l0.334,1.479
		c-0.908,0.396-1.981,0.593-3.217,0.593c-1.488,0-2.656-0.438-3.506-1.312c-0.848-0.875-1.273-2.052-1.273-3.525
		c0-1.444,0.395-2.649,1.186-3.61c0.828-1.026,1.947-1.539,3.355-1.539c1.383,0,2.43,0.513,3.14,1.539
		C121.874,24.047,122.157,25.055,122.157,26.252 M120.124,25.699c0.015-0.633-0.125-1.178-0.414-1.639
		c-0.369-0.595-0.937-0.891-1.698-0.891c-0.697,0-1.265,0.289-1.697,0.869c-0.354,0.461-0.565,1.016-0.631,1.658L120.124,25.699z"/>
	<path clip-path="url(#SVGID_2_)" fill="#FFFFFF" d="M48.747,13.433H47.63l-0.611-1.921h-2.125l-0.583,1.921h-1.087l2.106-6.541h1.3
		L48.747,13.433z M46.835,10.706l-0.553-1.708c-0.058-0.175-0.165-0.582-0.33-1.232h-0.02c-0.068,0.281-0.165,0.689-0.311,1.232
		l-0.543,1.708H46.835z"/>
	<path clip-path="url(#SVGID_2_)" fill="#FFFFFF" d="M54.013,8.717l-1.786,4.716h-1.019L49.48,8.717h1.126l0.806,2.494
		c0.136,0.417,0.252,0.815,0.339,1.193h0.029c0.078-0.339,0.194-0.737,0.339-1.193l0.796-2.494H54.013z"/>
	<path clip-path="url(#SVGID_2_)" fill="#FFFFFF" d="M57.815,13.433l-0.078-0.543h-0.029c-0.32,0.437-0.786,0.65-1.378,0.65
		c-0.844,0-1.446-0.592-1.446-1.388c0-1.164,1.009-1.766,2.756-1.766v-0.087c0-0.621-0.33-0.932-0.98-0.932
		c-0.466,0-0.874,0.117-1.232,0.35l-0.213-0.689c0.437-0.272,0.98-0.408,1.621-0.408c1.232,0,1.854,0.65,1.854,1.951v1.737
		c0,0.476,0.02,0.845,0.068,1.126L57.815,13.433z M57.669,11.084c-1.165,0-1.747,0.282-1.747,0.951c0,0.495,0.301,0.737,0.718,0.737
		c0.534,0,1.029-0.407,1.029-0.96V11.084z"/>
	<path clip-path="url(#SVGID_2_)" fill="#FFFFFF" d="M61.024,7.94c-0.349,0-0.621-0.272-0.621-0.631s0.281-0.621,0.641-0.621
		c0.359,0,0.65,0.262,0.64,0.621C61.684,7.688,61.413,7.94,61.024,7.94 M61.568,13.433H60.52V8.717h1.048V13.433z"/>
	<rect x="63.43" y="6.553" clip-path="url(#SVGID_2_)" fill="#FFFFFF" width="1.048" height="6.88"/>
	<path clip-path="url(#SVGID_2_)" fill="#FFFFFF" d="M68.931,13.433l-0.077-0.543h-0.028c-0.32,0.437-0.786,0.65-1.378,0.65
		c-0.844,0-1.446-0.592-1.446-1.388c0-1.164,1.009-1.766,2.756-1.766v-0.087c0-0.621-0.33-0.932-0.979-0.932
		c-0.466,0-0.874,0.117-1.232,0.35l-0.214-0.69c0.437-0.272,0.98-0.408,1.621-0.408c1.23,0,1.854,0.65,1.854,1.951v1.737
		c0,0.476,0.021,0.845,0.067,1.126H68.931z M68.786,11.084c-1.165,0-1.747,0.282-1.747,0.951c0,0.495,0.301,0.737,0.718,0.737
		c0.534,0,1.029-0.407,1.029-0.96V11.084z"/>
	<path clip-path="url(#SVGID_2_)" fill="#FFFFFF" d="M74.052,13.54c-0.669,0-1.163-0.282-1.483-0.835h-0.021l-0.06,0.728h-0.893
		c0.028-0.378,0.038-0.806,0.038-1.271V6.553h1.05v2.854h0.02c0.311-0.524,0.814-0.786,1.504-0.786c1.136,0,1.932,0.971,1.932,2.387
		C76.139,12.472,75.255,13.54,74.052,13.54 M73.839,9.444c-0.603,0-1.155,0.524-1.155,1.252v0.825c0,0.65,0.496,1.184,1.137,1.184
		c0.785,0,1.253-0.64,1.253-1.659C75.072,10.095,74.586,9.444,73.839,9.444"/>
	<rect x="77.689" y="6.553" clip-path="url(#SVGID_2_)" fill="#FFFFFF" width="1.047" height="6.88"/>
	<path clip-path="url(#SVGID_2_)" fill="#FFFFFF" d="M84.441,11.327h-3.146c0.021,0.893,0.611,1.397,1.484,1.397
		c0.467,0,0.894-0.078,1.271-0.223l0.163,0.728c-0.446,0.194-0.97,0.291-1.581,0.291c-1.476,0-2.349-0.932-2.349-2.377
		c0-1.446,0.894-2.533,2.231-2.533c1.202,0,1.961,0.893,1.961,2.242C84.48,11.036,84.471,11.201,84.441,11.327 M83.48,10.58
		c0-0.728-0.369-1.242-1.039-1.242c-0.603,0-1.076,0.524-1.146,1.242H83.48z"/>
	<path clip-path="url(#SVGID_2_)" fill="#FFFFFF" d="M90.793,13.54c-1.378,0-2.271-1.029-2.271-2.425
		c0-1.457,0.912-2.495,2.351-2.495c1.355,0,2.271,0.98,2.271,2.417C93.143,12.511,92.201,13.54,90.793,13.54 M90.833,9.386
		c-0.757,0-1.242,0.708-1.242,1.698c0,0.971,0.495,1.68,1.232,1.68c0.736,0,1.231-0.758,1.231-1.7
		C92.055,10.104,91.57,9.386,90.833,9.386"/>
	<path clip-path="url(#SVGID_2_)" fill="#FFFFFF" d="M98.777,13.433H97.73v-2.708c0-0.834-0.32-1.252-0.951-1.252
		c-0.621,0-1.049,0.534-1.049,1.155v2.805h-1.047v-3.368c0-0.417-0.012-0.864-0.039-1.349h0.922l0.049,0.728h0.029
		c0.278-0.504,0.854-0.825,1.494-0.825c0.988,0,1.639,0.757,1.639,1.989V13.433z"/>
	<path clip-path="url(#SVGID_2_)" fill="#FFFFFF" d="M105.634,9.503h-1.153v2.29c0,0.583,0.203,0.874,0.61,0.874
		c0.185,0,0.341-0.02,0.466-0.049l0.029,0.796c-0.204,0.078-0.477,0.117-0.814,0.117c-0.826,0-1.318-0.456-1.318-1.65V9.503h-0.688
		V8.717h0.688V7.853l1.027-0.311v1.174h1.153V9.503z"/>
	<path clip-path="url(#SVGID_2_)" fill="#FFFFFF" d="M111.184,13.433h-1.049v-2.688c0-0.844-0.32-1.271-0.951-1.271
		c-0.543,0-1.047,0.369-1.047,1.116v2.843h-1.049v-6.88h1.049v2.833h0.021c0.329-0.514,0.806-0.767,1.417-0.767
		c0.999,0,1.609,0.776,1.609,2.009V13.433z"/>
	<path clip-path="url(#SVGID_2_)" fill="#FFFFFF" d="M116.539,11.327h-3.145c0.02,0.893,0.609,1.397,1.483,1.397
		c0.468,0,0.894-0.078,1.271-0.223l0.164,0.728c-0.445,0.194-0.971,0.291-1.582,0.291c-1.476,0-2.349-0.932-2.349-2.377
		c0-1.446,0.894-2.533,2.231-2.533c1.203,0,1.961,0.893,1.961,2.242C116.578,11.036,116.568,11.201,116.539,11.327 M115.578,10.58
		c0-0.728-0.368-1.242-1.038-1.242c-0.603,0-1.077,0.524-1.146,1.242H115.578z"/>
</g>
</svg>
