<?xml version="1.0" encoding="utf-8"?>
<!-- Generator: Adobe Illustrator 16.0.0, SVG Export Plug-In . SVG Version: 6.00 Build 0)  -->
<!DOCTYPE svg PUBLIC "-//W3C//DTD SVG 1.1//EN" "http://www.w3.org/Graphics/SVG/1.1/DTD/svg11.dtd">
<svg version="1.1" id="Layer_1" xmlns="http://www.w3.org/2000/svg" xmlns:xlink="http://www.w3.org/1999/xlink" x="0px" y="0px"
	 width="135px" height="40px" viewBox="0 0 135 40" enable-background="new 0 0 135 40" xml:space="preserve">
<g>
	<defs>
		<rect id="SVGID_1_" width="135" height="40"/>
	</defs>
	<clipPath id="SVGID_2_">
		<use xlink:href="#SVGID_1_"  overflow="visible"/>
	</clipPath>
	<path clip-path="url(#SVGID_2_)" fill="#FFFFFF" d="M134.032,35.268c0,2.116-1.714,3.83-3.834,3.83H4.729
		c-2.119,0-3.839-1.714-3.839-3.83V4.726c0-2.116,1.72-3.836,3.839-3.836h125.468c2.121,0,3.834,1.72,3.834,3.836L134.032,35.268z"
		/>
	<path clip-path="url(#SVGID_2_)" d="M130.198,39.989H4.729C2.122,39.989,0,37.872,0,35.268V4.726C0,2.12,2.122,0,4.729,0h125.468
		c2.604,0,4.729,2.12,4.729,4.726v30.542C134.927,37.872,132.802,39.989,130.198,39.989"/>
	<path clip-path="url(#SVGID_2_)" d="M134.032,35.268c0,2.116-1.714,3.83-3.834,3.83H4.729c-2.119,0-3.839-1.714-3.839-3.83V4.726
		c0-2.116,1.72-3.836,3.839-3.836h125.468c2.121,0,3.834,1.72,3.834,3.836L134.032,35.268z"/>
	<path clip-path="url(#SVGID_2_)" fill="#E1E1E1" d="M46.853,6.736c0.91,0,1.539,0.41,1.949,0.83l-0.639,0.719
		c-0.33-0.32-0.69-0.54-1.3-0.54c-1.159,0-1.939,0.9-1.939,2.369c0,1.489,0.7,2.389,2.009,2.389c0.36,0,0.72-0.1,0.93-0.29v-1.409
		h-1.23v-0.95h2.269v2.879c-0.45,0.42-1.219,0.779-2.109,0.779c-1.739,0-3.058-1.199-3.058-3.368
		C43.734,8.005,45.093,6.736,46.853,6.736"/>
	<path clip-path="url(#SVGID_2_)" fill="#E1E1E1" d="M52.173,8.365c1.329,0,2.029,0.959,2.029,2.328c0,0.221-0.02,0.42-0.05,0.54
		h-3.118c0.099,0.89,0.659,1.39,1.449,1.39c0.419,0,0.779-0.13,1.139-0.36l0.39,0.72c-0.47,0.309-1.059,0.529-1.679,0.529
		c-1.36,0-2.419-0.949-2.419-2.569C49.914,9.344,51.023,8.365,52.173,8.365 M53.202,10.504c0-0.78-0.329-1.249-0.999-1.249
		c-0.58,0-1.08,0.429-1.18,1.249H53.202z"/>
	<path clip-path="url(#SVGID_2_)" fill="#E1E1E1" d="M55.324,9.395h-0.7V8.536l0.76-0.05l0.14-1.34h0.96v1.34h1.249v0.909h-1.249
		v2.339c0,0.579,0.219,0.859,0.689,0.859c0.17,0,0.37-0.05,0.51-0.11l0.2,0.85c-0.27,0.09-0.61,0.18-1,0.18
		c-1.139,0-1.559-0.72-1.559-1.779V9.395z"/>
	<path clip-path="url(#SVGID_2_)" fill="#E1E1E1" d="M60.684,6.976c0-0.39,0.3-0.66,0.71-0.66s0.71,0.27,0.71,0.66
		c0,0.38-0.3,0.65-0.71,0.65S60.684,7.356,60.684,6.976 M60.814,8.485h1.149v4.907h-1.149V8.485z"/>
	<path clip-path="url(#SVGID_2_)" fill="#E1E1E1" d="M63.604,9.395h-0.7V8.536l0.76-0.05l0.14-1.34h0.96v1.34h1.249v0.909h-1.249
		v2.339c0,0.579,0.219,0.859,0.689,0.859c0.17,0,0.37-0.05,0.51-0.11l0.2,0.85c-0.27,0.09-0.61,0.18-1,0.18
		c-1.139,0-1.559-0.72-1.559-1.779V9.395z"/>
	<path clip-path="url(#SVGID_2_)" fill="#E1E1E1" d="M71.102,8.365c1.23,0,2.34,0.939,2.34,2.579c0,1.629-1.109,2.568-2.34,2.568
		c-1.219,0-2.328-0.939-2.328-2.568C68.773,9.304,69.883,8.365,71.102,8.365 M71.102,12.573c0.721,0,1.16-0.65,1.16-1.629
		c0-0.99-0.439-1.64-1.16-1.64c-0.719,0-1.148,0.65-1.148,1.64C69.953,11.923,70.383,12.573,71.102,12.573"/>
	<path clip-path="url(#SVGID_2_)" fill="#E1E1E1" d="M74.584,8.485h0.949l0.08,0.66h0.039c0.439-0.43,0.939-0.78,1.609-0.78
		c1.052,0,1.51,0.71,1.51,1.949v3.078h-1.15v-2.928c0-0.81-0.229-1.109-0.77-1.109c-0.43,0-0.709,0.209-1.119,0.609v3.428h-1.148
		V8.485z"/>
	<path clip-path="url(#SVGID_2_)" fill="#FFFFFF" d="M101.248,30.64c-0.521,0-0.996-0.095-1.426-0.287
		c-0.431-0.191-0.792-0.487-1.083-0.886H98.65c0.059,0.467,0.089,0.909,0.089,1.326v3.291h-1.211V22.499h0.985l0.167,1.094h0.059
		c0.313-0.438,0.673-0.752,1.088-0.948c0.412-0.192,0.887-0.291,1.421-0.291c1.062,0,1.879,0.362,2.456,1.086
		c0.575,0.725,0.863,1.742,0.863,3.051c0,1.313-0.293,2.332-0.877,3.061C103.102,30.277,102.289,30.64,101.248,30.64
		 M101.072,23.381c-0.816,0-1.407,0.227-1.771,0.68c-0.365,0.452-0.553,1.172-0.563,2.159v0.271c0,1.123,0.188,1.926,0.563,2.412
		c0.372,0.482,0.974,0.725,1.801,0.725c0.69,0,1.232-0.28,1.623-0.84c0.393-0.558,0.588-1.329,0.588-2.313
		c0-0.996-0.195-1.761-0.588-2.294C102.335,23.646,101.783,23.381,101.072,23.381"/>
	<rect x="106.16" y="19.144" clip-path="url(#SVGID_2_)" fill="#FFFFFF" width="1.211" height="11.35"/>
	<path clip-path="url(#SVGID_2_)" fill="#FFFFFF" d="M114.333,30.494l-0.24-1.138h-0.059c-0.398,0.503-0.797,0.841-1.193,1.018
		c-0.396,0.177-0.891,0.266-1.484,0.266c-0.792,0-1.413-0.204-1.863-0.611c-0.449-0.409-0.676-0.989-0.676-1.744
		c0-1.613,1.292-2.461,3.875-2.539l1.357-0.044v-0.496c0-0.627-0.136-1.091-0.406-1.389c-0.269-0.299-0.702-0.449-1.295-0.449
		c-0.667,0-1.419,0.205-2.26,0.613l-0.373-0.928c0.394-0.212,0.825-0.38,1.294-0.503c0.47-0.122,0.94-0.182,1.413-0.182
		c0.952,0,1.658,0.212,2.118,0.636c0.459,0.422,0.689,1.1,0.689,2.035v5.455H114.333z M111.599,29.641
		c0.754,0,1.347-0.207,1.776-0.619c0.429-0.414,0.645-0.993,0.645-1.737v-0.721l-1.212,0.05c-0.963,0.035-1.657,0.184-2.08,0.449
		c-0.427,0.265-0.639,0.679-0.639,1.236c0,0.438,0.131,0.771,0.396,0.999C110.751,29.527,111.12,29.641,111.599,29.641"/>
	<path clip-path="url(#SVGID_2_)" fill="#FFFFFF" d="M115.934,22.499h1.298l1.752,4.561c0.382,1.04,0.623,1.791,0.714,2.255h0.059
		c0.063-0.25,0.195-0.674,0.398-1.275c0.202-0.6,0.861-2.448,1.979-5.54h1.299l-3.435,9.104c-0.342,0.901-0.738,1.538-1.193,1.916
		c-0.455,0.379-1.014,0.565-1.674,0.565c-0.37,0-0.735-0.043-1.096-0.125v-0.971c0.268,0.061,0.567,0.089,0.897,0.089
		c0.832,0,1.425-0.468,1.78-1.4l0.445-1.138L115.934,22.499z"/>
	<path clip-path="url(#SVGID_2_)" fill="#FFFFFF" d="M78.815,23.242c0.386,0.317,1.187,0.986,1.187,2.257
		c0,1.238-0.701,1.824-1.403,2.376c-0.218,0.215-0.47,0.452-0.47,0.82c0,0.367,0.252,0.567,0.437,0.718l0.603,0.468
		c0.735,0.62,1.403,1.188,1.403,2.343c0,1.571-1.522,3.161-4.397,3.161c-2.426,0-3.595-1.155-3.595-2.393
		c0-0.603,0.299-1.454,1.288-2.041c1.035-0.636,2.441-0.718,3.193-0.77c-0.235-0.301-0.502-0.618-0.502-1.135
		c0-0.286,0.084-0.453,0.167-0.655c-0.185,0.018-0.368,0.034-0.536,0.034c-1.771,0-2.775-1.322-2.775-2.624
		c0-0.771,0.352-1.624,1.07-2.242c0.953-0.785,2.09-0.92,2.994-0.92h3.444l-1.07,0.603H78.815z M77.629,30.668
		c-0.134-0.018-0.218-0.018-0.384-0.018c-0.15,0-1.056,0.033-1.757,0.27c-0.368,0.133-1.437,0.534-1.437,1.721
		c0,1.186,1.152,2.041,2.941,2.041c1.605,0,2.458-0.77,2.458-1.807C79.451,32.021,78.9,31.57,77.629,30.668 M78.113,27.489
		c0.385-0.386,0.418-0.918,0.418-1.22c0-1.205-0.719-3.078-2.107-3.078c-0.435,0-0.902,0.219-1.171,0.554
		c-0.283,0.351-0.366,0.801-0.366,1.237c0,1.119,0.652,2.977,2.09,2.977C77.396,27.959,77.846,27.758,78.113,27.489"/>
	<path clip-path="url(#SVGID_2_)" fill="#FFFFFF" d="M68.289,30.402c-2.655,0-4.074-2.073-4.074-3.943
		c0-2.187,1.786-4.057,4.324-4.057c2.454,0,3.99,1.92,3.99,3.941C72.529,28.313,71.011,30.402,68.289,30.402 M70.375,29.048
		c0.401-0.534,0.501-1.203,0.501-1.854c0-1.471-0.7-4.274-2.772-4.274c-0.55,0-1.101,0.218-1.5,0.568
		c-0.651,0.584-0.769,1.318-0.769,2.039c0,1.65,0.819,4.37,2.839,4.37C69.324,29.897,69.993,29.581,70.375,29.048"/>
	<path clip-path="url(#SVGID_2_)" fill="#FFFFFF" d="M59.24,30.402c-2.656,0-4.075-2.073-4.075-3.943
		c0-2.187,1.787-4.057,4.325-4.057c2.454,0,3.99,1.92,3.99,3.941C63.479,28.313,61.961,30.402,59.24,30.402 M61.327,29.048
		c0.4-0.534,0.5-1.203,0.5-1.854c0-1.471-0.701-4.274-2.771-4.274c-0.551,0-1.103,0.218-1.502,0.568
		c-0.653,0.584-0.769,1.318-0.769,2.039c0,1.65,0.818,4.37,2.839,4.37C60.275,29.897,60.942,29.581,61.327,29.048"/>
	<path clip-path="url(#SVGID_2_)" fill="#FFFFFF" d="M53.889,30.139l-2.399,0.554c-0.976,0.151-1.848,0.284-2.77,0.284
		c-4.633,0-6.395-3.406-6.395-6.076c0-3.256,2.5-6.277,6.781-6.277c0.907,0,1.779,0.134,2.567,0.352
		c1.26,0.352,1.848,0.789,2.216,1.04l-1.393,1.326l-0.587,0.134l0.42-0.672c-0.571-0.552-1.612-1.577-3.592-1.577
		c-2.653,0-4.65,2.017-4.65,4.953c0,3.155,2.282,6.127,5.941,6.127c1.076,0,1.629-0.22,2.133-0.421v-2.701l-2.534,0.134l1.342-0.724
		h3.559l-0.437,0.421c-0.118,0.102-0.135,0.134-0.168,0.27c-0.017,0.149-0.034,0.638-0.034,0.804V30.139z"/>
	<path clip-path="url(#SVGID_2_)" fill="#FFFFFF" d="M84.122,29.655c-0.555-0.051-0.67-0.15-0.67-0.807v-0.185v-9.316
		c0.003-0.037,0.006-0.073,0.008-0.109c0.068-0.587,0.235-0.687,0.758-0.99h-2.401l-1.261,0.605h1.283v0.007v-0.006v9.809v0.555
		c0,0.335-0.066,0.386-0.453,0.889h2.971l0.623-0.367C84.693,29.704,84.407,29.688,84.122,29.655"/>
	<path clip-path="url(#SVGID_2_)" fill="#FFFFFF" d="M90.953,29.809c-0.184,0.101-0.367,0.218-0.548,0.3
		c-0.553,0.252-1.12,0.318-1.621,0.318c-0.531,0-1.366-0.035-2.216-0.651c-1.185-0.833-1.701-2.267-1.701-3.518
		c0-2.584,2.103-3.851,3.818-3.851c0.6,0,1.216,0.15,1.72,0.468c0.83,0.549,1.047,1.265,1.163,1.649l-3.916,1.584l-1.285,0.101
		c0.417,2.117,1.851,3.35,3.435,3.35c0.851,0,1.467-0.301,2.034-0.583L90.953,29.809z M89.385,24.84
		c0.317-0.115,0.483-0.216,0.483-0.448c0-0.666-0.749-1.434-1.65-1.434c-0.668,0-1.917,0.517-1.917,2.317
		c0,0.282,0.033,0.583,0.052,0.883L89.385,24.84z"/>
	<polygon clip-path="url(#SVGID_2_)" fill="#FFFFFF" points="92.562,22.521 92.562,23.621 92.428,23.621 92.428,22.521 
		92.063,22.521 92.063,22.407 92.926,22.407 92.926,22.521 	"/>
	<polygon clip-path="url(#SVGID_2_)" fill="#FFFFFF" points="94.061,23.621 94.061,22.512 94.056,22.512 93.716,23.621 
		93.611,23.621 93.27,22.512 93.266,22.512 93.266,23.621 93.144,23.621 93.144,22.407 93.353,22.407 93.662,23.389 93.665,23.389 
		93.971,22.407 94.181,22.407 94.181,23.621 	"/>
</g>
<g>
	<defs>
		<path id="SVGID_3_" d="M11.033,6.69v12.1v12.346c0,0.292,0.135,0.492,0.346,0.56L24.947,18.79L11.491,5.993
			C11.221,6.066,11.033,6.3,11.033,6.69"/>
	</defs>
	<clipPath id="SVGID_4_">
		<use xlink:href="#SVGID_3_"  overflow="visible"/>
	</clipPath>
	
		<linearGradient id="SVGID_5_" gradientUnits="userSpaceOnUse" x1="0" y1="40" x2="1" y2="40" gradientTransform="matrix(0 26.4678 26.4678 0 -1040.7277 5.5625)">
		<stop  offset="0" style="stop-color:#207CB0"/>
		<stop  offset="0.3726" style="stop-color:#3CB2BF"/>
		<stop  offset="0.7953" style="stop-color:#58E9CE"/>
		<stop  offset="1" style="stop-color:#63FFD4"/>
	</linearGradient>
	<rect x="11.033" y="5.993" clip-path="url(#SVGID_4_)" fill="url(#SVGID_5_)" width="13.914" height="25.702"/>
</g>
<g>
	<defs>
		<path id="SVGID_6_" d="M11.491,5.993L24.947,18.79l3.737-3.554l-5.616-3.111c0,0-0.039-0.021-0.113-0.062L22.95,12.06
			c-0.036-0.02-0.08-0.044-0.131-0.073l-0.009-0.005c-0.011-0.006-0.022-0.012-0.034-0.018l-0.009-0.005
			c-0.009-0.006-0.019-0.011-0.029-0.017l-0.043-0.023c-0.003-0.002-0.005-0.003-0.007-0.004l-9.575-5.303
			c-0.471-0.261-0.787-0.436-0.879-0.487c-0.189-0.105-0.379-0.157-0.549-0.157C11.617,5.968,11.552,5.977,11.491,5.993"/>
	</defs>
	<clipPath id="SVGID_7_">
		<use xlink:href="#SVGID_6_"  overflow="visible"/>
	</clipPath>
	
		<linearGradient id="SVGID_8_" gradientUnits="userSpaceOnUse" x1="0" y1="39.9863" x2="1" y2="39.9863" gradientTransform="matrix(17.6514 0 0 -17.6514 11.0313 718.181)">
		<stop  offset="0" style="stop-color:#4BC3AE"/>
		<stop  offset="1" style="stop-color:#DEE999"/>
	</linearGradient>
	<rect x="11.491" y="5.968" clip-path="url(#SVGID_7_)" fill="url(#SVGID_8_)" width="17.193" height="12.822"/>
</g>
<g>
	<defs>
		<path id="SVGID_9_" d="M11.379,31.695c0.15,0.049,0.339,0.029,0.546-0.07l11.143-6.171l5.616-3.109l-3.737-3.555L11.379,31.695z"
			/>
	</defs>
	<clipPath id="SVGID_10_">
		<use xlink:href="#SVGID_9_"  overflow="visible"/>
	</clipPath>
	
		<linearGradient id="SVGID_11_" gradientUnits="userSpaceOnUse" x1="4.882813e-004" y1="40.0137" x2="1.0005" y2="40.0137" gradientTransform="matrix(0 13.3291 13.3291 0 -513.3051 18.7891)">
		<stop  offset="0" style="stop-color:#EC403D"/>
		<stop  offset="0.3693" style="stop-color:#CA3B73"/>
		<stop  offset="0.7948" style="stop-color:#A736AC"/>
		<stop  offset="1" style="stop-color:#9934C2"/>
	</linearGradient>
	<rect x="11.379" y="18.79" clip-path="url(#SVGID_10_)" fill="url(#SVGID_11_)" width="17.305" height="12.954"/>
</g>
<g>
	<defs>
		<path id="SVGID_12_" d="M24.947,18.79l3.737,3.555l0.003-0.002c0,0,0,0,0.001,0l0.003-0.002l0.001-0.001l0.012-0.007
			c0.001,0,0.002,0,0.002-0.001l0.019-0.01c0.319-0.178,2.449-1.357,3.944-2.185l1.445-0.801c0.576-0.335,0.537-0.781,0.07-1.056
			l-0.061-0.033c0-0.001-0.001-0.001-0.002-0.002c-0.535-0.276-5.437-3.01-5.437-3.01L24.947,18.79z"/>
	</defs>
	<clipPath id="SVGID_13_">
		<use xlink:href="#SVGID_12_"  overflow="visible"/>
	</clipPath>
	
		<linearGradient id="SVGID_14_" gradientUnits="userSpaceOnUse" x1="0" y1="39.9707" x2="1" y2="39.9707" gradientTransform="matrix(0 7.1089 7.1089 0 -254.3326 15.2344)">
		<stop  offset="0" style="stop-color:#FF8877"/>
		<stop  offset="0.6139" style="stop-color:#FFB275"/>
		<stop  offset="1" style="stop-color:#FFC774"/>
	</linearGradient>
	<rect x="24.947" y="15.236" clip-path="url(#SVGID_13_)" fill="url(#SVGID_14_)" width="9.743" height="7.109"/>
</g>
</svg>
